<svg xmlns="http://www.w3.org/2000/svg" xmlns:xlink= "http://www.w3.org/1999/xlink" viewBox="0 0 311 225" fill="none" width="311" height="225">
  <path d="M71.248 37.224l37.057-20.9c.177 0 .177-.176.355-.176L71.603 37.046c-.177 0-.177 0-.355.178z"
        fill="#1F4267"></path>
  <path d="M71.603 37.047l37.057-20.9h.177l-37.057 20.9h-.177z" fill="#20446B"></path>
  <path d="M71.78 37.047l37.234-20.9h.178L72.135 36.87c-.177 0-.177 0-.355.177z" fill="#22476F"></path>
  <path d="M72.135 36.87l37.057-20.9h.177l-37.234 20.9z" fill="#234973"></path>
  <path d="M72.135 36.87l37.234-20.9h.177l-37.411 20.9c.177 0 .177 0 0 0z" fill="#244C77"></path>
  <path d="M72.312 36.87l37.057-20.9h.177l-37.234 20.9s.178 0 0 0z" fill="#254E7B"></path>
  <path d="M72.489 36.87l37.057-20.9h.177l-37.234 20.9z" fill="#26517F"></path>
  <path d="M72.489 36.87l37.234-20.722h.177L72.489 36.87c.177 0 .177.177 0 0z" fill="#285383"></path>
  <path d="M72.667 37.047l37.056-20.9h.178l-37.234 20.9z" fill="#295687"></path>
  <path d="M72.844 37.047l37.056-20.9h.178l-37.234 20.9z" fill="#2A588B"></path>
  <path d="M72.844 37.047l37.056-20.9h.178l-37.234 20.9z" fill="#2B5B8F"></path>
  <path d="M73.022 37.047l37.056-20.9h.178l-37.234 20.9z" fill="#2C5D93"></path>
  <path d="M73.022 37.047l37.056-20.9h.178l-37.234 20.9z" fill="#2E6096"></path>
  <path d="M73.199 37.224l37.057-20.899h.177L73.199 37.224z" fill="#2F629A"></path>
  <path d="M73.199 37.224l37.057-20.899-37.057 20.899z" fill="#30659E"></path>
  <path d="M73.199 37.224l37.234-20.899 79.964 43.923-38.829 20.367-78.369-43.391z" fill="#90B4D3"></path>
  <path
    d="M151.567 80.615c3.901 2.125 7.979 18.065 7.802 33.65l-1.773 69.072-92.908-50.652 1.064-71.198c.177-15.585 3.546-26.389 7.624-24.086l78.191 43.214z"
    fill="#618FAA"></path>
  <path
    d="M195.362 88.762c0-1.24 0-2.302-.177-3.365v-.354-.709c0-.708 0-1.416-.178-2.302V81.5v-.532c0-.708-.177-1.417-.177-1.948v-.885c0-.532-.177-1.24-.177-1.771 0-.178 0-.532-.178-.709v-.177c0-.354-.177-.709-.177-1.24 0-.354-.177-.708-.177-1.063V73c0-.177-.177-.53-.177-.708 0-.354-.178-.708-.178-1.063v-.354c0-.177-.177-.354-.177-.708 0-.355-.177-.532-.177-.886 0-.177-.178-.354-.178-.531 0-.177 0-.354-.177-.531v-.355c-.177-.354-.177-.708-.355-1.24v-.354c0-.177-.177-.531-.177-.708 0-.177-.177-.531-.177-.709v-.177-.177c0-.177-.178-.354-.178-.531 0-.177-.177-.354-.177-.531 0-.178-.177-.355-.177-.355 0-.177-.177-.354-.177-.53 0-.178-.178-.355-.178-.355s0-.177-.177-.177c0-.177-.177-.177-.177-.354 0-.178-.178-.355-.178-.355 0-.177-.177-.177-.177-.354 0 0 0-.177-.177-.177l-.178-.177s0-.177-.177-.177 0 0-.177-.177l-.178-.177-.177-.177h-.177-.177-.178-.177-.177l-37.234 20.721c.177.177.532.354.709.531l.709.709c.177.177.355.531.532.885 0 .178.177.178.177.355l.532 1.062c.178.532.355.886.532 1.417v.177l.532 1.594v.177l.532 1.594c0 .177 0 .354.177.531.178.532.178.886.355 1.417 0 .178.177.355.177.709.177.531.177.885.355 1.417 0 .177.177.531.177.708 0 .354.177.886.177 1.24s.178.708.178 1.24c0 .354 0 .53.177.885 0 .531.177 1.063.177 1.771 0 .354 0 .709.178.886 0 .708.177 1.24.177 1.948v1.063c0 .708.177 1.416.177 2.302v1.063c0 1.062 0 2.302.178 3.365v2.833l-1.064 71.198 37.056-20.899 1.064-71.197c-.177-.886-.177-1.771-.177-2.834z"
    fill="#598196"></path>
  <path
    d="M242.525 168.46c0-3.542-2.305-7.261-7.27-10.095l.177-43.745c4.788 2.833 7.27 6.375 7.27 10.095-.177 13.106-.177 30.639-.177 43.745z"
    fill="#D3E6EA"></path>
  <path
    d="M235.432 114.62l-.177 43.745c4.787 2.834 7.27 6.376 7.27 10.095l.177-43.745c-.177-3.72-2.482-7.262-7.27-10.095z"
    fill="#D3E6EA"></path>
  <path
    d="M193.943 124.538c0-3.542 2.305-7.085 7.093-9.918 9.397-5.491 24.822-5.491 34.397 0l-.178 43.745c-9.574-5.49-25-5.49-34.397 0-4.787 2.657-7.092 6.376-7.092 9.918 0-13.106.177-30.639.177-43.745z"
    fill="#D3E6EA"></path>
  <path d="M193.943 124.538l-.177 43.745v-.177l.177-43.745v.177z" fill="#D3E6EA"></path>
  <path d="M193.943 124.361l-.177 43.745c0-.531 0-.885.177-1.417l.177-43.745c-.177.354-.177.885-.177 1.417z"
        fill="#D3E6EA"></path>
  <path d="M194.12 122.944l-.177 43.745c.177-.531.177-.885.355-1.417l.177-43.745c-.177.531-.355.885-.355 1.417z"
        fill="#D3E6EA"></path>
  <path d="M194.475 121.527l-.177 43.745c.177-.531.354-.885.709-1.416l.177-43.746c-.354.531-.532.886-.709 1.417z"
        fill="#D3E6EA"></path>
  <path d="M195.184 120.11l-.177 43.746c.354-.532.532-1.063 1.063-1.417l.178-43.746c-.532.531-.887.886-1.064 1.417z"
        fill="#D3E6EA"></path>
  <path
    d="M196.07 118.693l-.177 43.746c.355-.532.887-1.063 1.596-1.594l.177-43.746-1.596 1.594zM197.667 117.099l-.178 43.746c.887-.886 1.951-1.594 3.014-2.303l.178-43.745c-1.064.708-2.128 1.417-3.014 2.302z"
    fill="#D3E6EA"></path>
  <path
    d="M200.68 114.797l-.177 43.745c.177 0 .177-.177.355-.177 1.596-.885 3.369-1.771 5.319-2.302l.177-43.746c-1.95.532-3.723 1.417-5.319 2.303-.177 0-.177.177-.355.177zM206.354 112.317l-.177 43.746c1.418-.532 3.014-.886 4.61-1.063l.177-43.745c-1.596.177-3.191.531-4.61 1.062z"
    fill="#D3E6EA"></path>
  <path d="M210.964 111.078l-.177 43.745c1.063-.177 2.127-.354 3.191-.354l.177-43.746c-1.063 0-2.127.177-3.191.355z"
        fill="#D3E6EA"></path>
  <path
    d="M213.979 110.723l-.178 43.746c.887-.177 1.773-.177 2.66-.177l.177-43.746c-.709 0-1.773 0-2.659.177zM216.815 110.546l-.177 43.746h2.482l.177-43.746h-2.482z"
    fill="#D3E6EA"></path>
  <path d="M219.297 110.546l-.177 43.746c.887 0 1.596 0 2.482.177l.178-43.746c-.887-.177-1.773-.177-2.483-.177z"
        fill="#D3E6EA"></path>
  <path
    d="M221.602 110.546l-.177 43.746c.709 0 1.596.177 2.305.177l.177-43.746c-.709 0-1.418 0-2.305-.177zM224.085 110.9l-.178 43.746c.887.177 1.596.177 2.483.354l.177-43.745c-.886-.177-1.773-.177-2.482-.355z"
    fill="#D3E6EA"></path>
  <path
    d="M226.39 111.255L226.212 155c.887.177 1.773.354 2.483.709l.177-43.746c-.709-.177-1.596-.531-2.482-.708zM228.872 111.963l-.177 43.746c1.064.354 1.95.708 3.014 1.062l.177-43.745c-.886-.532-1.95-.886-3.014-1.063z"
    fill="#D3E6EA"></path>
  <path
    d="M231.886 112.849l-.177 43.922c1.241.532 2.482 1.063 3.546 1.594l.177-43.745c-1.064-.709-2.305-1.24-3.546-1.771z"
    fill="#D3E6EA"></path>
  <path
    d="M235.61 31.202c-4.078 0-7.447-3.365-7.447-7.438 0-3.188 2.128-6.022 4.965-6.908-3.901-5.136-9.043-8.147-14.717-8.147-12.411 0-22.517 15.232-22.517 34.005 0 7.439 8.687 14.346 11.524 20.013 4.078 8.501 3.546 13.992 11.171 13.992 6.737 0 9.397-9.564 13.475-16.648 3.546-6.022 9.042-8.679 9.042-17.357 0-4.428-.532-8.678-1.595-12.574-1.242.708-2.483 1.062-3.901 1.062z"
    fill="#2BD4EA"></path>
  <path
    d="M213.447 167.929s-3.901-96.7 41.312-116.714M218.411 164.741s3.546-50.121-27.127-72.614M223.021 93.013s20.745 16.116 43.263 0M210.61 164.741c0-2.657 5.319-57.914 8.156-110.87"
    stroke="#2BD4EA" stroke-width="1.2" stroke-miterlimit="10"></path>
  <path
    d="M176.036 102.576c11.652 0 21.099-9.435 21.099-21.075 0-11.64-9.447-21.076-21.099-21.076-11.653 0-21.1 9.436-21.1 21.076s9.447 21.075 21.1 21.075z"
    fill="#2BD4EA"></path>
  <path
    d="M189.511 90.179c-.532-.709-2.482-3.542-6.206-6.73-4.787-4.074-12.411-8.501-23.404-8.856M186.674 86.46s2.482-4.074 3.014-10.804M180.468 81.146s4.078-4.25 3.901-11.689M172.312 76.896s4.256-1.417 3.724-9.918M165.929 74.77s4.078-1.948 2.305-7.792M184.369 85.751c-.355.177-4.965 7.793-9.575 6.376M177.099 79.021s-2.836 8.678-9.751 7.439M170.007 76.896c-.709.354-4.787 7.438-9.929 6.022"
    stroke="#0DA6C9" stroke-miterlimit="10"></path>
  <path
    d="M284.901 113.38c11.653 0 21.099-9.436 21.099-21.076s-9.446-21.076-21.099-21.076-21.099 9.436-21.099 21.076 9.446 21.076 21.099 21.076z"
    fill="#2BD4EA"></path>
  <path
    d="M268.943 93.367c.887-.354 3.901-1.948 8.688-3.011 6.206-1.417 14.894-1.771 24.823 3.188M273.198 91.596s-.177-4.782 2.483-10.98M281.177 89.825s-1.595-5.668 2.128-12.044M290.397 89.825s-3.014-3.365 1.419-10.45M296.957 90.887s-2.659-3.719 1.596-7.97M275.681 91.95c.177.354.709 9.21 5.496 10.095M285.078 89.47s-1.596 9.033 5.142 11.158M292.525 90.887c.354.532.709 8.679 5.851 10.095M217.702 71.937s8.156-38.964 1.064-56.143M219.652 60.425s9.22-2.303 8.866-11.69M220.893 51.392c-2.127-.354-15.248 1.771-15.957-11.335M222.312 39.88s7.447 3.72 9.752-3.188M221.603 29.431s-8.865 3.72-10.993-4.782M221.425 43.777c-1.773 0-6.915-.355-8.333-7.085M218.589 62.904s-1.773 2.657-6.915-5.667"
    stroke="#0DA6C9" stroke-miterlimit="10"></path>
  <path
    d="M279.049 29.785c-4.078-3.896-10.993-3.365-13.83 1.594 0 .177-.177.177-.177.354-1.241 3.011-3.369 5.314-6.206 6.553-6.56 2.834-10.992 7.97-10.992 13.815 0 7.615 7.801 14.168 18.085 15.762 0-.354-.178-.708-.178-1.062 0-4.96 4.078-9.033 9.043-9.033 4.078 0 7.447 2.657 8.51 6.376.355.886 1.242 1.417 2.128.886 5.851-3.011 9.752-7.793 9.752-13.106 0-3.72-4.433-8.147-7.979-10.981-2.482-1.948-4.432-4.605-5.851-7.438-.354-1.24-1.241-2.657-2.305-3.72z"
    fill="#2BD4EA"></path>
  <path
    d="M253.695 54.403s1.773-2.834 5.319-5.136c3.191-2.125 7.801-3.896 13.83-3.01 12.766 1.947 18.262 8.146 18.262 8.146M258.837 50.153s-1.951-3.542 0-7.97M267.702 45.194s-2.837-4.782 4.61-12.044M276.036 46.788s-.887-2.834 2.836-6.376M285.255 50.153s-.709-3.543.887-4.96M262.56 47.673s-1.773 8.501 1.419 12.22M271.071 46.788s-2.482 5.136 1.773 7.084M281 49.09s-3.369 4.073-2.128 5.844"
    stroke="#0DA6C9" stroke-miterlimit="10"></path>
  <path
    d="M242.525 125.069v1.771c0 .177 0 .177-.177.354 0 .177 0 .177-.178.355 0 .177 0 .177-.177.354 0 .177-.177.177-.177.354s-.178.177-.178.354-.177.177-.177.354-.177.177-.177.355c0 .177-.178.354-.355.354l-.177.177c-.177.177-.177.354-.355.531l-.177.177v.177c-.177.178-.177.355-.355.532l-.177.177-.532.531-.177.177c-.178.177-.355.177-.355.355l-.354.354-.355.354-.355.354-.354.354c-.178.177-.355.177-.355.355-.177 0-.177.177-.354.177-.178.177-.355.177-.355.354-.177.177-.355.177-.532.354l-1.064.531c-.177 0-.177.178-.354.178-.355.177-.532.354-.887.354-.177 0-.177.177-.355.177-.354.177-.886.354-1.241.531h-.177c-.355.177-.709.177-1.064.354-.177 0-.354.178-.354.178-.178 0-.355.177-.532.177-.178 0-.355.177-.532.177-.178 0-.355.177-.532.177-.177 0-.355 0-.532.177-.177 0-.355.177-.532.177-.177 0-.355 0-.532.177-.177 0-.355 0-.709.177-.177 0-.355 0-.532.177-.532 0-.887.177-1.419.177h-.177c-.354 0-.886.178-1.241.178H214.865c-.354 0-.532 0-.886-.178h-.178c-.354 0-.709-.177-1.241-.177h-.177c-.355 0-.709-.177-1.064-.177h-.354c-.178 0-.532-.177-.71-.177h-.354c-.355 0-.532-.177-.887-.177-.177 0-.354 0-.532-.177-.177 0-.532-.177-.709-.177-.177 0-.354 0-.354-.177-.355-.177-.71-.177-1.064-.354h-.178c-.354-.178-.886-.355-1.241-.532-.177 0-.354-.177-.532-.177-.177 0-.354-.177-.354-.177-.178 0-.355-.177-.532-.177-.177 0-.177-.177-.355-.177-.177-.177-.354-.177-.532-.354-.177 0-.177-.178-.354-.178-.355-.177-.532-.354-.887-.531-1.773-1.063-3.191-2.125-4.432-3.365-.355-.354-.71-.885-1.064-1.24-.178-.177-.355-.354-.355-.708-.886-1.594-1.418-3.188-1.418-4.605l-.178 43.746c0 3.542 2.305 7.261 7.27 10.095.354.177.532.354.886.531.178 0 .178.177.355.177.177.177.355.177.532.354.177 0 .177.178.355.178.177 0 .354.177.531.177.178 0 .355.177.355.177.177 0 .177.177.355.177h.177c.355.177.886.354 1.241.531h.177c.355.177.71.177 1.064.354h.355c.177 0 .532.177.709.177.177 0 .355 0 .532.178.355 0 .532.177.886.177h.355c.177 0 .532.177.709.177h.355c.355 0 .709.177 1.064.177h.177c.355 0 .709.177 1.241.177h.177c.355 0 .532 0 .887.177H222.489c.355 0 .887-.177 1.242-.177h.177c.532 0 .886-.177 1.418-.177h.532c.178 0 .355 0 .709-.177.178 0 .355 0 .532-.177.178 0 .355-.177.71-.177.177 0 .354 0 .532-.178.177 0 .354-.177.531-.177.178 0 .355-.177.532-.177.178 0 .355-.177.532-.177h.355c.354-.177.709-.177 1.064-.354h.177c.355-.177.887-.354 1.241-.531.177 0 .177-.177.355-.177.354-.178.532-.355.886-.355.178 0 .178-.177.355-.177l1.064-.531c.177 0 .177-.177.354-.177.178 0 .178-.177.355-.177.177-.177.355-.177.355-.355.177 0 .177-.177.354-.177.177-.177.355-.177.355-.354l.354-.354.355-.354.355-.355.354-.354s.177 0 .177-.177c.178 0 .178-.177.355-.177l.177-.177.532-.531.178-.177c.177-.178.354-.355.354-.532v-.177s0-.177.178-.177c.177-.177.177-.354.354-.531l.177-.177c.178-.178.178-.355.355-.355v-.177s0-.177.177-.177c0-.177.178-.177.178-.354s.177-.177.177-.354.177-.177.177-.355v-.354c0-.177 0-.177.178-.354 0-.177 0-.177.177-.354v-.532-.177-.354-.354-.708l.177-43.746c-.177-.354-.177-.177-.177 0z"
    fill="#F8FEFF"></path>
  <path d="M99.262 164.21l-.886 51.892L6 164.918l.71-51.892 92.552 51.184z" fill="#618FAA"></path>
  <path d="M99.263 164.21l58.687-33.828-.709 53.487-58.865 32.233.886-51.892z" fill="#598196"></path>
  <path d="M6.709 113.026l59.397-33.474 91.844 50.83-58.688 33.828L6.71 113.026z" fill="#90B4D3"></path>
  <g filter="url(#filter0_d)">
    <path
      d="M36.851 131.622c1.773 2.302 4.787 3.188 7.624 3.896 1.596.355 3.192.886 4.61 1.594.532.355 1.064.709 1.773 1.063.887.708 1.596 1.771 2.482 2.657 1.773 2.125 3.901 4.781 6.915 5.667 2.66.886 5.32.177 7.979-.354 1.596-.354 3.191-.709 4.433-.709.886.177 1.595.177 2.482.355 1.24.354 2.482 1.062 3.9 1.948 2.305 1.417 4.965 2.833 7.98 2.833 3.013 0 5.673-1.594 7.978-2.833 1.418-.709 2.66-1.417 3.723-1.948.887-.178 1.596-.178 2.305-.355 1.419 0 3.014.355 4.61.709 2.66.531 5.497 1.062 7.979.354 3.014-1.063 5.142-3.542 6.915-5.667.886-1.063 1.596-1.949 2.482-2.834.532-.354 1.241-.709 1.773-1.063 1.419-.708 3.014-1.24 4.433-1.594 2.837-.885 5.851-1.594 7.624-3.896 2.482-3.188 1.95-7.084 1.418-10.627-.177-.885-.177-1.771-.354-2.656v-1.063l-.355-57.737c.532-28.691-22.695-51.538-51.064-51.361-28.368.177-51.24 23.201-51.063 51.538l.354 57.737c0 .354 0 .709.177 1.063 0 .885-.177 1.771-.354 2.657-.532 3.542-1.064 7.438 1.241 10.626z"
      fill="#fff"></path>
  </g>
  <path
    d="M18.057 86.637a9.53 9.53 0 019.574-9.564c5.32 0 5.851 4.25 5.851 9.564 0 5.313-.354 9.564-5.674 9.564-5.319 0-9.751-4.251-9.751-9.564z"
    fill="#F2F8F9"></path>
  <path
    d="M63.801 120.641a11.307 11.307 0 0111.348-11.335c6.206 0 6.915 5.137 6.915 11.335 0 6.199-.532 11.335-6.738 11.335-6.383 0-11.525-5.136-11.525-11.335z"
    fill="#EAEFEF"></path>
  <path d="M52.631 77.073s4.965 6.022 15.249 4.605" stroke="#5FC6CE" stroke-width="5" stroke-miterlimit="10"
        stroke-linecap="round" stroke-linejoin="round"></path>
  <path
    d="M78.035 75.125c4.504-.021 8.134-4.558 8.108-10.134-.027-5.575-3.7-10.078-8.205-10.056-4.504.021-8.134 4.559-8.108 10.134.027 5.575 3.7 10.078 8.205 10.056zM51.97 68.041c4.505-.021 8.135-4.558 8.108-10.134-.026-5.575-3.7-10.077-8.204-10.056-4.504.022-8.134 4.559-8.108 10.134.027 5.576 3.7 10.078 8.205 10.056z"
    stroke="#5FC6CE" stroke-width="5" stroke-miterlimit="10"></path>
  <path d="M41.993 91.596v45.162l-15.07-15.408V68.749l13.297 20.19 26.241-1.77v49.589H41.993" fill="#EAEFEF"></path>
  <path d="M39.688 93.721v45.34l-15.07-15.586V71.051l15.07 18.42h24.468v49.59H39.688" fill="#2BD4EA"></path>
  <path d="M66.638 81.323l.177 1.063c.887-.177 2.305 0 4.079 1.417l1.772-.708c-1.95-1.24-4.078-2.126-6.028-1.772z"
        fill="#4C4031"></path>
  <path
    d="M81.532 99.211c.532-3.719-1.773-8.324-2.66-9.74-.886-1.595-3.369-4.428-6.028-6.376l-1.773.708c1.773 1.24 3.723 3.72 6.028 7.616 1.419 2.656 1.596 5.844.887 7.615 0 1.417.354 2.834.886 4.251 1.596 3.365 4.965 5.667 8.688 5.667 5.32 0 9.752-4.427 9.752-9.74h-15.78z"
    fill="#7C5C39"></path>
  <defs>
    <filter id="filter0_d" x="27.149" y="2" width="123.567" height="162.572" filterUnits="userSpaceOnUse"
            color-interpolation-filters="sRGB">
      <feFlood flood-opacity="0" result="BackgroundImageFix"></feFlood>
      <feColorMatrix in="SourceAlpha" values="0 0 0 0 0 0 0 0 0 0 0 0 0 0 0 0 0 0 127 0"></feColorMatrix>
      <feOffset dx="2" dy="4"></feOffset>
      <feGaussianBlur stdDeviation="5"></feGaussianBlur>
      <feColorMatrix values="0 0 0 0 0 0 0 0 0 0 0 0 0 0 0 0 0 0 0.25 0"></feColorMatrix>
      <feBlend in2="BackgroundImageFix" result="effect1_dropShadow"></feBlend>
      <feBlend in="SourceGraphic" in2="effect1_dropShadow" result="shape"></feBlend>
    </filter>
  </defs>
</svg>
