
<svg xmlns="http://www.w3.org/2000/svg" xmlns:xlink= "http://www.w3.org/1999/xlink" width="154" height="49" fill="none" class="navbar-logo" tabindex="0">
  <path
    d="M64.9 14.7v.2c-.1 1.8-1.6 3.3-3.5 3.3h-1.8v1.9h-2.2v-8.8h4.3c1.8 0 3.1 1.5 3.2 3.3v.1zm-2.2 0c0-.7-.6-1.3-1.3-1.3h-1.8V16h1.8c.3 0 .7-.1.9-.4.3-.2.4-.5.4-.9z"
    fill="#14CAE2"></path>
  <path fill-rule="evenodd" clip-rule="evenodd" d="M79 11.3v8.8h-2.1v-3.2H73v3.2h-2.1v-8.8H73V15h3.9v-3.7H79z"
        fill="#14CAE2"></path>
  <path d="M92.1 18.8h-4.3l-.6 1.2h-2.4l4.4-8.8h1.6L95 20h-2.3l-.6-1.2zm-.8-1.7L90 14.3l-1.3 2.8h2.6z"
        fill="#14CAE2"></path>
  <path fill-rule="evenodd" clip-rule="evenodd"
        d="M109.4 11.3v8.8h-2.1l-4.4-5.3v5.3h-2.1v-8.8h2.1l4.4 5.5v-5.5h2.1zm14.7 1.8h-3.4V20h-2.1v-6.9h-3.4v-1.9h8.8l.1 1.9z"
        fill="#14CAE2"></path>
  <path
    d="M138.4 15.7c0 2.6-2.1 4.6-4.7 4.6s-4.7-2.1-4.7-4.6c0-2.6 2.1-4.6 4.7-4.6 1.2 0 2.4.5 3.3 1.4.9.8 1.4 1.9 1.4 3.2zm-2.1 0c0-1.1-.6-2-1.6-2.4-1-.4-2.1-.2-2.9.6-.8.7-1 1.9-.6 2.8.4 1 1.4 1.6 2.4 1.6 1.6 0 2.7-1.2 2.7-2.6z"
    fill="#14CAE2"></path>
  <path fill-rule="evenodd" clip-rule="evenodd"
        d="M154 11.3v8.8h-2.1v-4.5l-2.1 4.5h-.9l-2.1-4.5v4.5h-2.1v-8.8h2.1l2.5 4.9 2.5-5 2.2.1z" fill="#14CAE2"></path>
  <path
    d="M65.2 34.8c0 .7-.3 1.5-.8 2s-1.2.8-2 .8h-5v-8.8h4.7a2.732 2.732 0 012.7 2.7c0 .5-.1 1-.4 1.5.5.5.8 1.2.8 1.8zm-5.6-2.5h2.5c.4-.1.7-.4.7-.9 0-.4-.3-.8-.7-.9h-2.5v1.8zm3.6 2.6c0-.2-.1-.5-.2-.7-.2-.2-.4-.3-.6-.3h-2.8v1.9h2.8c.2 0 .5-.1.6-.3.2-.1.3-.3.2-.6z"
    fill="#14CAE2"></path>
  <path fill-rule="evenodd" clip-rule="evenodd"
        d="M79.8 28.9v4.3c0 2.8-2 4.7-4.5 4.7s-4.5-1.9-4.5-4.7v-4.3H73v4.3c0 1.4 1 2.5 2.3 2.5 1.3 0 2.3-1.2 2.3-2.5v-4.3h2.2zm5.8 6h2.3s.1 1.2 1.7 1.2c.8 0 1.6-.5 1.6-1 0-1.1-2.1-1.2-2.6-1.3-1-.2-2.8-.7-2.8-2.3 0-1.6 1.7-2.8 3.7-2.8 2.5 0 3.7 1.3 3.7 2.4H91c0-.2-.4-.7-1.5-.7-.8 0-1.4.5-1.4 1.1 0 .7 1.4.7 1.9.8 1.2.2 3.6.5 3.6 2.9 0 1.5-1.8 2.8-3.9 2.8-2.9-.1-4.1-1.9-4.1-3.1zm22.6-4.1h-3.4v6.9h-2.1v-6.9h-3.4v-1.9h8.9v1.9zm8 0v1.6h3.6v1.9h-3.6v1.6h4.5v1.9H114V29h6.7v1.9l-4.5-.1z"
        fill="#14CAE2"></path>
  <path
    d="M132.1 37.7l-1.5-2.2h-1.5v2.2h-2.2v-8.8h4.3c1.8 0 3.2 1.5 3.2 3.5 0 1.1-.6 2.2-1.6 2.7l1.9 2.7h-2.6v-.1zm-3-4.2h1.8c.3 0 .7-.1.9-.3.2-.2.4-.5.4-.9 0-.7-.6-1.3-1.3-1.3h-1.8v2.5z"
    fill="#14CAE2"></path>
  <path fill-rule="evenodd" clip-rule="evenodd"
        d="M147.6 37l4.8-7.6c.1-.2.3-.3.6-.3.2 0 .5.1.6.3.1.2.1.5 0 .7l-4.8 7.6c-.2.3-.6.4-.9.2-.1-.1-.2-.1-.2-.2-.2-.3-.2-.5-.1-.7zm-5.8 0l4.8-7.6c.1-.2.3-.3.6-.3.2 0 .5.1.6.3.1.2.1.5 0 .7l-4.8 7.6c-.2.3-.6.4-.9.2-.1-.1-.2-.1-.2-.2-.2-.3-.2-.5-.1-.7z"
        fill="#14CAE2"></path>
  <path d="M24.6 49c13.586 0 24.6-10.969 24.6-24.5S38.186 0 24.6 0C11.014 0 0 10.969 0 24.5S11.014 49 24.6 49z"
        fill="#14CAE2"></path>
  <path fill-rule="evenodd" clip-rule="evenodd"
        d="M39 35.7c0-.2-.1-.5-.1-.7V18.7c0-7.8-6.4-14.1-14.2-14.1-7.9 0-14.2 6.3-14.2 14.1v16.2c0 .2 0 .5-.1.7-.1 1-.3 2 .4 2.9.5.6 1.3.9 2.1 1.1.4.1.9.3 1.3.4.2.1.3.2.5.3.3.2.5.5.7.8.5.6 1.1 1.3 1.9 1.6.7.2 1.5.1 2.2-.1.4-.1.8-.2 1.3-.2.2 0 .4.1.7.1.4.1.7.3 1.1.5.7.4 1.4.8 2.2.8.8 0 1.6-.4 2.2-.8.3-.2.7-.4 1.1-.5.2 0 .5-.1.7-.1.4 0 .8.1 1.3.2.7.2 1.5.3 2.2.1.8-.3 1.4-1 1.9-1.6.2-.3.4-.5.7-.8.2-.1.3-.2.5-.3.4-.2.8-.3 1.3-.4.8-.2 1.6-.5 2.1-1.1.5-.8.3-1.9.2-2.8zm6.3-13.8c0 1.8-1.4 3.2-3.2 3.2-1.8 0-1.8-1.4-1.8-3.2 0-1.8.1-3.2 1.8-3.2 1.7.1 3.2 1.5 3.2 3.2zm-41.1 0c0 1.8 1.4 3.2 3.2 3.2 1.8 0 1.8-1.4 1.8-3.2 0-1.8-.1-3.2-1.8-3.2-1.8.1-3.2 1.5-3.2 3.2z"
        fill="#fff"></path>
  <path
    d="M19 23.5c-1.4 0-2.7-.8-3.2-2.1s-.2-2.8.7-3.8c1-1 2.5-1.3 3.8-.7 1.3.5 2.1 1.8 2.1 3.2.1 1.9-1.5 3.4-3.4 3.4zm0-5.7c-.9 0-1.8.6-2.1 1.4-.4.9-.2 1.8.5 2.5s1.6.8 2.5.5c.9-.3 1.4-1.2 1.4-2.1 0-1.3-1-2.3-2.3-2.3zm11.3 5.7c-1.9 0-3.5-1.5-3.5-3.4s1.6-3.4 3.5-3.4 3.5 1.5 3.5 3.4c0 .9-.4 1.8-1 2.4-.7.7-1.6 1-2.5 1zm0-5.7c-1.3 0-2.3 1-2.3 2.3 0 1.3 1 2.3 2.3 2.3 1.3 0 2.3-1 2.3-2.3-.1-1.3-1.1-2.3-2.3-2.3z"
    fill="#14CAE2"></path>
  <path class="logo-mouth-closed" fill-rule="evenodd" clip-rule="evenodd"
        d="M24.5 26.6c-1.1 0-2.2-.3-3.1-.9-.3-.1-.4-.5-.3-.8.1-.3.5-.4.8-.3 0 0 .1 0 .1.1 1.5.9 3.4.9 5 .1l.3-.2c.2-.1.4-.1.6 0 .3.2.4.5.2.8-.1.1-.1.2-.2.2l-.3.2c-1.1.5-2.1.8-3.1.8z"
        fill="#14CAE2"></path>
  <path class="logo-mouth-open" fill-rule="evenodd" clip-rule="evenodd"
        d="M24.5 29.3c-1.8 0-3.2-1.4-3.2-3.2 0-1.8 1.4-1.8 3.2-1.8 1.8 0 3.2.1 3.2 1.8 0 1.8-1.4 3.2-3.2 3.2z"
        fill="#14CAE2"></path>
</svg>
